<?xml version="1.0" standalone="no"?>
<!DOCTYPE svg PUBLIC "-//W3C//DTD SVG 20010904//EN"
 "http://www.w3.org/TR/2001/REC-SVG-20010904/DTD/svg10.dtd">
<svg version="1.0" xmlns="http://www.w3.org/2000/svg"
 width="200.000000pt" height="200.000000pt" viewBox="0 0 200.000000 200.000000"
 preserveAspectRatio="xMidYMid meet">
<metadata>
Created by potrace 1.11, written by Peter Selinger 2001-2013
</metadata>
<g transform="translate(0.000000,200.000000) scale(0.100000,-0.100000)"
fill="#000000" stroke="none">
<path d="M1114 1216 c-3 -7 -4 -98 -2 -200 3 -210 2 -208 78 -204 l45 3 5 68
5 68 63 -70 c54 -60 68 -71 96 -71 34 0 60 15 68 40 3 9 -21 44 -63 90 l-68
75 60 62 c80 83 81 133 3 148 -26 6 -35 -1 -99 -76 l-70 -82 -3 68 c-2 38 -8
75 -14 82 -14 18 -97 17 -104 -1z"/>
<path d="M490 1200 c-32 -32 -24 -57 40 -124 33 -35 60 -66 60 -71 0 -5 -29
-39 -65 -76 -69 -71 -76 -87 -47 -111 49 -43 81 -31 160 62 l62 71 0 -76 0
-76 52 3 c76 4 78 13 75 233 l-2 180 -49 3 c-27 2 -54 -2 -60 -8 -6 -6 -13
-41 -16 -77 l-5 -66 -65 76 c-71 83 -102 95 -140 57z"/>
<path d="M905 1069 c-4 -6 3 -21 16 -35 l22 -24 -21 -23 c-27 -28 -28 -43 -5
-52 12 -4 24 1 36 16 l18 22 15 -21 c32 -46 69 -14 38 32 -15 25 -15 28 0 45
9 9 16 25 16 34 0 24 -36 21 -54 -4 l-14 -21 -11 21 c-12 22 -45 28 -56 10z"/>
</g>
</svg>
